<svg width="444" height="399" viewBox="0 0 444 399" fill="none" xmlns="http://www.w3.org/2000/svg">
<g clip-path="url(#clip0_1_309)">
<path d="M334.3 40.8903L321.687 40.8905C314.781 41.7105 308.752 44.953 298.79 50.3101L297.281 51.1211C284.41 35.2242 275.816 28.424 268.393 30.213C273.425 34.6895 277.15 39.4539 280.023 44.3401C282 59.787 281.761 67.6836 272.455 76.7306C263.986 76.1485 259.841 89.4869 271.957 102.407C258.325 105.185 260.528 108.811 276.379 117.654C275.805 145.564 279.735 157.716 302.727 166.25C327.524 172.292 337.158 160.56 348.136 117.654C363.069 89.627 370.016 82.3422 374.664 115.096C380.173 137.576 384.036 147.638 396.96 145.788C401.368 124.962 398.98 108.405 389.8 89.4869C388.951 86.9036 388.308 84.3556 387.845 81.846C373.565 53.8546 361.468 45.2187 335.523 37.3572C334.729 38.739 334.3 39.94 334.3 40.8903Z" fill="#9293A1"/>
<path d="M321.687 40.8906C293.937 17.8713 257.063 11.3291 230.868 6.78711C231.58 7.41472 232.27 8.00247 232.941 8.57402C240.178 14.7397 245.204 19.0208 251.05 51.1212C257.159 38.7179 262.393 31.6592 268.393 30.2131C275.816 28.4241 284.41 35.2243 297.281 51.1212L298.79 50.3102C308.752 44.9531 314.781 41.7106 321.687 40.8906Z" fill="#9293A1"/>
<path d="M404.937 10.1983C385.908 -6.87895 343.278 23.8627 335.523 37.3574C361.468 45.2188 373.564 53.8548 387.845 81.8462C383.916 60.5518 392.978 42.0426 399.51 28.7032C403.641 20.265 406.76 13.8955 404.937 10.1983Z" fill="#9293A1"/>
<path d="M155.187 40.8904C155.441 110.566 119.868 112.506 76.982 112.506C16.4365 120.179 69.4138 166.217 99.6865 191.794C129.959 217.371 113.485 231.519 59.3229 268.525C32.1235 283.383 51.7547 304.333 109.778 306.89C137.847 306.874 148.554 310.962 162.755 322.236C173.646 333 182.695 340.423 191.755 343.684C207.49 346.848 215.288 345.448 227.081 336.394C229.89 334.532 232.825 332.375 235.914 329.91C258.063 314.656 271.557 316.664 301.261 321.085L301.281 321.088L302.198 321.224C304.398 321.552 306.686 321.891 309.073 322.236C339.346 322.236 351.582 290.202 344.391 248.063C369.873 242.543 377.998 233.332 374.664 204.583C374.618 204.242 378.409 204.583 374.664 204.583C386.132 180.425 393.564 161.839 396.96 145.788C384.036 147.638 380.172 137.576 374.664 115.096C370.015 82.3423 363.069 89.6272 348.136 117.654C337.157 160.56 327.524 172.292 302.727 166.25C279.735 157.716 275.805 145.564 276.379 117.654C260.528 108.811 258.325 105.186 271.957 102.407C259.841 89.487 263.986 76.1486 272.454 76.7308C281.761 67.6837 281.999 59.7871 280.023 44.3402C277.15 39.454 273.425 34.6896 268.393 30.2131C262.393 31.6593 257.159 38.7179 251.05 51.1212C245.203 19.0208 240.178 14.7397 232.941 8.57405C232.269 8.00251 231.58 7.41475 230.868 6.78714C226.174 5.97318 221.6 5.02975 217.14 4.1099C203.946 1.38862 191.754 -1.12608 180.414 0.529287C157.087 9.4142 156.413 20.5843 155.237 40.0475L155.187 40.8904Z" fill="white"/>
<path d="M41.6646 99.7162C-47.6551 209.099 21.4823 309.448 109.778 360.602C237.807 434.775 417.424 387.682 384.629 216.316C377.718 213.518 375.502 210.778 374.664 204.583C377.998 233.332 369.873 242.543 344.391 248.063C351.582 290.202 339.346 322.236 309.073 322.236C306.686 321.891 304.398 321.552 302.199 321.224L301.281 321.088L301.261 321.085C271.557 316.664 258.063 314.656 235.914 329.91C232.825 332.375 229.89 334.532 227.081 336.394C215.289 345.448 207.49 346.848 191.755 343.684C182.695 340.423 173.646 333 162.755 322.236C148.554 310.962 137.847 306.875 109.778 306.89C51.7548 304.333 32.1236 283.383 59.3229 268.525C113.485 231.519 129.959 217.371 99.6866 191.794C69.4139 166.217 16.4365 120.179 76.982 112.506C119.868 112.506 155.441 110.566 155.187 40.8905L155.238 40.0475C156.413 20.5843 157.087 9.41421 180.414 0.529297C115.712 9.97388 78.7374 62.1304 41.6646 99.7162Z" fill="#9293A1"/>
<path d="M244.874 122.911C244.782 124.321 245.833 125.54 247.224 125.634C248.614 125.728 249.816 124.661 249.908 123.252L244.874 122.911ZM315.643 80.4359C316.098 81.771 317.534 82.4795 318.851 82.0186C320.168 81.5577 320.867 80.1019 320.412 78.7662L315.643 80.4359ZM265.525 31.0505C264.156 30.7851 262.834 31.6946 262.572 33.0821C262.311 34.4695 263.208 35.8093 264.577 36.0747L265.525 31.0505ZM312.12 110.139C313.43 110.622 314.877 109.937 315.353 108.61C315.829 107.282 315.154 105.815 313.844 105.332L312.12 110.139ZM398.755 107.736L401.229 107.234L401.198 107.078L401.148 106.927L398.755 107.736ZM371.981 229.88L369.47 229.637C369.462 229.718 369.458 229.799 369.458 229.88H371.981ZM201.982 151.216L201.257 148.766L201.222 148.777L201.982 151.216ZM175.534 127.83C176.727 127.102 177.112 125.53 176.393 124.32C175.675 123.11 174.124 122.72 172.931 123.449L175.534 127.83ZM154.05 128.197C154.05 126.785 152.921 125.64 151.528 125.64C150.135 125.64 149.005 126.785 149.005 128.197H154.05ZM138.72 136.854C139.256 135.55 138.648 134.053 137.361 133.51C136.075 132.966 134.599 133.583 134.063 134.887L138.72 136.854ZM121.137 131.527C121.558 130.18 120.821 128.743 119.493 128.316C118.165 127.89 116.747 128.637 116.327 129.983L121.137 131.527ZM96.0276 138.428L98.5084 138.892L98.5543 138.639L98.5498 138.38L96.0276 138.428ZM419.67 125.529C421.003 125.118 421.756 123.689 421.35 122.338C420.945 120.986 419.536 120.224 418.203 120.635L419.67 125.529ZM415.18 107.377C416.378 106.655 416.772 105.085 416.06 103.871C415.348 102.657 413.8 102.258 412.602 102.979L415.18 107.377ZM436.005 184.395C437.36 184.726 438.722 183.881 439.048 182.507C439.374 181.134 438.541 179.753 437.186 179.422L436.005 184.395ZM427.43 206.907C428.508 207.802 430.097 207.641 430.98 206.548C431.862 205.455 431.704 203.844 430.625 202.949L427.43 206.907ZM419.576 227.091C420.503 228.146 422.098 228.239 423.138 227.299C424.178 226.359 424.27 224.742 423.343 223.688L419.576 227.091ZM329.929 227.171C330.899 226.157 330.875 224.538 329.875 223.554C328.875 222.57 327.278 222.594 326.308 223.608L329.929 227.171ZM288.068 275.31C287.396 276.547 287.84 278.103 289.061 278.784C290.281 279.465 291.815 279.015 292.488 277.777L288.068 275.31ZM320.644 222.83C322.036 222.778 323.122 221.591 323.071 220.18C323.02 218.768 321.849 217.666 320.457 217.718L320.644 222.83ZM263.198 251.788C262.252 252.825 262.315 254.443 263.338 255.402C264.361 256.361 265.957 256.298 266.903 255.26L263.198 251.788ZM313.056 210.042C314.448 210.001 315.544 208.823 315.504 207.411C315.463 205.999 314.302 204.888 312.908 204.929L313.056 210.042ZM247.737 239.442C247.033 240.661 247.436 242.228 248.638 242.942C249.84 243.657 251.386 243.248 252.09 242.029L247.737 239.442ZM325.144 194.739C323.773 194.991 322.864 196.323 323.113 197.712C323.363 199.102 324.676 200.024 326.047 199.771L325.144 194.739ZM350.898 226.01C351.236 227.38 352.606 228.213 353.957 227.871C355.309 227.528 356.131 226.139 355.793 224.769L350.898 226.01ZM249.908 123.252C250.542 113.613 250.704 102.63 251.095 91.8846C251.489 81.0677 252.115 70.4205 253.663 61.1657C255.22 51.8476 257.659 44.2974 261.437 39.4183C263.295 37.0196 265.449 35.3024 267.971 34.3005C270.495 33.2979 273.543 32.9499 277.281 33.5329L278.047 28.4769C273.586 27.7811 269.618 28.1524 266.131 29.5377C262.642 30.9236 259.789 33.2628 257.469 36.2592C252.891 42.1703 250.284 50.7657 248.688 60.3104C247.082 69.9187 246.448 80.8518 246.053 91.6959C245.656 102.611 245.502 113.368 244.874 122.911L249.908 123.252ZM264.577 36.0747C269.015 36.9355 272.579 40.5901 275.85 46.7549C279.104 52.8875 281.722 60.8251 284.613 69.2767C287.462 77.6102 290.561 86.3825 294.747 93.7206C298.939 101.069 304.395 107.291 312.12 110.139L313.844 105.332C307.694 103.065 303.016 97.9996 299.114 91.1593C295.205 84.3083 292.248 75.9896 289.38 67.6009C286.551 59.3303 283.787 50.9142 280.293 44.3312C276.817 37.7805 272.267 32.3581 265.525 31.0505L264.577 36.0747ZM277.281 33.5329C280.32 34.007 284.125 35.9279 288.313 39.2773C292.459 42.5919 296.793 47.1552 300.883 52.6082L304.899 49.5119C300.607 43.7885 295.982 38.8943 291.438 35.2606C286.936 31.6616 282.319 29.1432 278.047 28.4769L277.281 33.5329ZM300.883 52.6082C306.815 60.5171 312.156 70.1944 315.643 80.4359L320.412 78.7662C316.736 67.9707 311.128 57.8167 304.899 49.5119L300.883 52.6082ZM304.562 52.976C316.428 42.3403 333.523 38.9835 350.532 46.7299C367.591 54.4989 384.879 73.6099 396.362 108.544L401.148 106.927C389.384 71.1382 371.355 50.6051 352.6 42.0637C333.796 33.4999 314.582 37.167 301.22 49.1439L304.562 52.976ZM369.458 229.88C369.458 233.067 368.367 235.752 366.308 237.875C364.215 240.033 360.987 241.743 356.55 242.629C347.641 244.408 334.348 242.751 317.637 235.513L315.654 240.218C332.874 247.675 347.249 249.699 357.525 247.648C362.68 246.618 366.925 244.535 369.905 241.462C372.921 238.352 374.504 234.366 374.504 229.88H369.458ZM317.637 235.513C308.09 231.379 299.339 223.187 290.699 213.115C281.983 202.954 273.889 191.534 265.048 180.608C256.361 169.873 247.16 159.906 236.802 153.628C226.333 147.281 214.653 144.692 201.257 148.766L202.707 153.666C214.538 150.068 224.76 152.288 234.213 158.018C243.778 163.816 252.521 173.193 261.148 183.853C269.62 194.323 278.209 206.35 286.893 216.472C295.653 226.684 305.019 235.612 315.654 240.218L317.637 235.513ZM201.222 148.777C189.166 152.64 180.316 155.257 172.833 155.352C165.621 155.444 159.63 153.183 153.301 146.84L149.754 150.478C156.985 157.725 164.255 160.578 172.897 160.467C181.268 160.361 190.865 157.46 202.742 153.655L201.222 148.777ZM153.553 150.184C157.154 145.266 159.483 141.675 162.576 138.214C165.588 134.842 169.314 131.628 175.534 127.83L172.931 123.449C166.358 127.462 162.229 130.982 158.836 134.779C155.524 138.487 152.896 142.5 149.502 147.134L153.553 150.184ZM149.005 128.197V148.659H154.05V128.197H149.005ZM149.08 148.038C147.47 154.571 145.328 158.797 143.277 161.201C141.206 163.628 139.591 163.855 138.718 163.623C137.76 163.369 136.39 162.239 135.538 159.251C134.706 156.336 134.529 152.068 135.658 146.627L130.72 145.575C129.473 151.587 129.569 156.74 130.69 160.672C131.791 164.531 134.053 167.674 137.441 168.572C140.914 169.493 144.358 167.753 147.093 164.548C149.846 161.32 152.256 156.252 153.975 149.279L149.08 148.038ZM135.658 146.627C136.27 143.675 137.262 140.403 138.72 136.854L134.063 134.887C132.494 138.703 131.403 142.281 130.72 145.575L135.658 146.627ZM98.5498 138.38C98.5054 135.957 97.9862 133.783 96.6366 132.24C95.1865 130.583 93.2152 130.134 91.3742 130.3C89.6047 130.46 87.7702 131.185 86.0502 132.119C84.2989 133.07 82.5012 134.33 80.7721 135.735C77.321 138.538 73.9668 142.065 71.6106 145.27C70.4385 146.865 69.4461 148.47 68.828 149.934C68.5192 150.665 68.266 151.448 68.1635 152.234C68.0626 153.005 68.0813 153.98 68.544 154.918L73.0566 152.63C73.2034 152.929 73.1409 153.09 73.1651 152.906C73.1873 152.736 73.2655 152.422 73.4658 151.947C73.8664 150.999 74.6061 149.756 75.656 148.327C77.7438 145.487 80.7948 142.271 83.9271 139.726C85.4891 138.457 87.027 137.392 88.4327 136.628C89.8701 135.847 91.0139 135.468 91.8212 135.395C92.5568 135.329 92.7611 135.519 92.8621 135.634C93.0634 135.865 93.4705 136.597 93.5054 138.476L98.5498 138.38ZM68.544 154.918C69.2513 156.353 70.3346 158.05 72.1318 159.026C74.0743 160.081 76.317 160.023 78.708 159.012C81.0194 158.036 83.649 156.109 86.7379 153.101C89.8529 150.068 93.5619 145.808 98.019 139.998L94.0361 136.858C89.6632 142.558 86.1198 146.61 83.2429 149.412C80.3402 152.239 78.2398 153.669 76.7676 154.291C75.374 154.879 74.7791 154.661 74.5143 154.517C74.1041 154.294 73.6101 153.753 73.0566 152.63L68.544 154.918ZM116.327 129.983C113.616 138.667 111.637 145.703 110.762 150.776L115.732 151.657C116.542 146.959 118.424 140.219 121.137 131.527L116.327 129.983ZM110.762 150.776C110.222 153.904 110.01 156.746 110.629 158.815C110.963 159.933 111.622 161.097 112.856 161.798C114.073 162.489 115.398 162.472 116.535 162.211C118.688 161.719 121.232 160.11 124.089 157.847C127.037 155.51 130.638 152.209 134.953 147.929L131.424 144.273C127.164 148.499 123.716 151.649 120.981 153.816C118.155 156.056 116.382 157.002 115.424 157.222C115.006 157.318 115.077 157.196 115.322 157.335C115.584 157.484 115.552 157.648 115.457 157.331C115.218 156.532 115.195 154.769 115.732 151.657L110.762 150.776ZM93.5467 137.964C92.0583 146.136 90.9725 152.949 90.5507 158.093C90.3398 160.66 90.2853 162.909 90.4559 164.75C90.6168 166.487 91.0109 168.32 92.0835 169.63C92.6728 170.349 93.4615 170.902 94.4347 171.146C95.3747 171.381 96.2965 171.281 97.1149 171.039C98.6779 170.576 100.296 169.465 101.933 168.041C105.268 165.141 109.643 160.078 115.238 152.787L111.256 149.646C105.676 156.917 101.567 161.621 98.6482 164.158C97.1588 165.453 96.2072 165.978 95.7006 166.128C95.4842 166.192 95.4963 166.143 95.6446 166.179C95.8252 166.225 95.9398 166.331 95.9655 166.362C95.968 166.365 95.9428 166.335 95.9014 166.251C95.8601 166.166 95.8086 166.039 95.7541 165.859C95.6436 165.491 95.5442 164.973 95.4791 164.272C95.349 162.864 95.3787 160.956 95.5785 158.517C95.9781 153.65 97.0215 147.056 98.5084 138.892L93.5467 137.964ZM403.315 138.434C406.302 134.718 408.515 132.103 410.928 130.091C413.275 128.134 415.878 126.698 419.67 125.529L418.203 120.635C413.85 121.976 410.639 123.708 407.722 126.141C404.869 128.519 402.366 131.518 399.404 135.202L403.315 138.434ZM396.281 108.238C397.366 113.735 398.087 118.734 398.501 123.315L403.525 122.849C403.093 118.067 402.344 112.888 401.229 107.234L396.281 108.238ZM398.501 123.315C398.944 128.222 399.034 132.649 398.84 136.693L403.879 136.943C404.086 132.639 403.988 127.972 403.525 122.849L398.501 123.315ZM403.404 123.897C404.847 119.545 406.02 116.545 407.686 114.067C409.309 111.653 411.499 109.595 415.18 107.377L412.602 102.979C408.455 105.479 405.652 108.01 403.517 111.186C401.424 114.298 400.072 117.892 398.622 122.267L403.404 123.897ZM398.84 136.693C397.907 156.071 390.467 166.978 382.858 180.652L387.252 183.166C394.703 169.778 402.878 157.764 403.879 136.943L398.84 136.693ZM385.5 184.427C405.47 180.798 416.361 179.601 436.005 184.395L437.186 179.422C416.574 174.391 404.896 175.705 384.61 179.391L385.5 184.427ZM382.858 180.652C380.212 185.406 377.563 190.481 375.249 196.298L379.928 198.212C382.123 192.693 384.652 187.838 387.252 183.166L382.858 180.652ZM377.837 199.8C401.964 197.369 414.362 196.063 427.43 206.907L430.625 202.949C415.673 190.54 401.001 192.326 377.338 194.71L377.837 199.8ZM375.249 196.298C374.845 197.312 374.892 198.391 374.962 199.101C375.038 199.878 375.202 200.708 375.335 201.387C375.481 202.125 375.596 202.717 375.651 203.226C375.711 203.788 375.653 203.904 375.688 203.798L380.469 205.433C380.799 204.441 380.745 203.399 380.667 202.672C380.583 201.892 380.416 201.061 380.283 200.387C380.139 199.652 380.03 199.077 379.983 198.597C379.929 198.05 380.004 198.019 379.928 198.212L375.249 196.298ZM375.688 203.798C373.516 210.324 370.346 220.313 369.47 229.637L374.493 230.122C375.307 221.456 378.29 211.978 380.469 205.433L375.688 203.798ZM378.002 207.172C388.306 207.49 394.955 208.395 400.84 211.139C406.725 213.884 412.105 218.592 419.576 227.091L423.343 223.688C415.749 215.049 409.805 209.69 402.948 206.492C396.091 203.294 388.581 202.381 378.155 202.059L378.002 207.172ZM326.308 223.608C307.795 242.949 299.451 254.35 288.068 275.31L292.488 277.777C303.635 257.251 311.702 246.213 329.929 227.171L326.308 223.608ZM320.457 217.718C309.624 218.125 300.907 220.403 292.023 225.811C283.237 231.16 274.401 239.503 263.198 251.788L266.903 255.26C278.049 243.038 286.483 235.15 294.62 230.197C302.659 225.303 310.516 223.21 320.644 222.83L320.457 217.718ZM312.908 204.929C297.507 205.384 285.418 206.516 275.061 211.368C264.593 216.273 256.19 224.824 247.737 239.442L252.09 242.029C260.231 227.949 267.961 220.33 277.178 216.012C286.505 211.642 297.653 210.498 313.056 210.042L312.908 204.929ZM326.047 199.771C333.064 198.478 337.541 197.734 340.574 197.734C342.057 197.734 342.988 197.918 343.608 198.178C344.165 198.413 344.569 198.75 344.94 199.313C345.35 199.937 345.736 200.869 346.12 202.316C346.503 203.755 346.841 205.533 347.236 207.775C348.019 212.223 348.981 218.234 350.898 226.01L355.793 224.769C353.927 217.199 352.996 211.381 352.202 206.876C351.809 204.643 351.438 202.664 350.993 200.986C350.549 199.315 349.989 197.77 349.138 196.475C348.247 195.121 347.075 194.099 345.542 193.454C344.073 192.835 342.403 192.619 340.574 192.619C336.985 192.619 332.003 193.474 325.144 194.739L326.047 199.771Z" fill="black"/>
<path d="M373.483 225.573C368.318 222.52 353.301 230.689 360.87 240.919C368.437 248.592 380.017 234.02 373.483 225.573Z" fill="#D59260"/>
</g>
<defs>
<clipPath id="clip0_1_309">
<rect width="444" height="399" fill="white"/>
</clipPath>
</defs>
</svg>
